<svg width="22" height="22" viewBox="0 0 20 17" fill="none" xmlns="http://www.w3.org/2000/svg">
<path d="M19.856 12.3934C19.856 13.0534 19.6947 13.662 19.372 14.2194C18.888 15.0554 18.6093 15.2167 18.052 15.5394C17.4947 15.862 16.8933 16.0234 16.2407 16.0234H8.29867C7.646 16.0234 7.03734 15.862 6.48 15.5394C5.92267 15.2167 5.47534 14.7767 5.15267 14.2194C4.83 13.662 4.66134 13.0534 4.66134 12.3934C4.66134 11.9094 4.764 11.418 4.96934 10.9267C4.412 10.252 4.13334 9.43802 4.13334 8.50669C4.13334 7.98602 4.236 7.48736 4.434 7.01069C4.632 6.53403 4.91067 6.13069 5.25534 5.78602C5.6 5.44136 6.00334 5.16269 6.48 4.96469C6.95667 4.75936 7.45534 4.66403 7.976 4.66403C9.06134 4.66403 10.0073 5.08936 10.8213 5.94003C11.386 5.61736 12.046 5.45603 12.8013 5.45603C13.8353 5.45603 14.7447 5.77869 15.5367 6.41669C16.3164 7.03231 16.8561 7.90146 17.062 8.87336C17.8833 9.06402 18.5507 9.48202 19.0713 10.142C19.592 10.802 19.856 11.55 19.856 12.3934ZM18.602 12.3934C18.602 11.7774 18.3967 11.2494 17.986 10.802C17.5753 10.3547 17.062 10.098 16.446 10.0247L16.0793 10.0027C15.9913 10.0027 15.94 9.95869 15.94 9.87069L15.8887 9.47469C15.786 8.68269 15.4413 8.01536 14.8547 7.48736C14.268 6.95202 13.5787 6.68802 12.794 6.68802C11.9873 6.68802 11.2833 6.95936 10.6893 7.49469C10.1062 7.99933 9.74532 8.71327 9.68467 9.48203L9.63334 9.90736C9.61867 9.98802 9.56734 10.032 9.47934 10.032H8.29867C7.65334 10.032 7.096 10.2667 6.62667 10.736C6.15734 11.2054 5.92267 11.7554 5.92267 12.4007C5.92267 13.068 6.15734 13.6327 6.61934 14.102C7.08134 14.5714 7.646 14.806 8.29134 14.806H16.2407C16.886 14.806 17.436 14.5714 17.9053 14.0947C18.3673 13.618 18.602 13.0534 18.602 12.3934ZM13.6887 3.39536C13.6887 3.57136 13.63 3.72536 13.5127 3.85736L13.0287 4.32669C12.8453 4.46603 12.6913 4.52469 12.5593 4.51003C12.4053 4.51003 12.2733 4.44402 12.156 4.31936C12.0387 4.19469 11.98 4.04069 11.98 3.86469C11.98 3.68869 12.046 3.54202 12.1707 3.43202L12.6033 2.94802C12.725 2.83521 12.8847 2.77237 13.0507 2.77202C13.2267 2.77202 13.3807 2.83069 13.5053 2.95536C13.63 3.07269 13.6887 3.21936 13.6887 3.39536ZM9.77267 6.64403C9.26667 6.15269 8.66534 5.91069 7.976 5.91069C7.25 5.91069 6.634 6.16003 6.128 6.66603C5.622 7.17202 5.36534 7.78069 5.36534 8.50669C5.36534 8.96136 5.49 9.41602 5.73934 9.85602C6.45067 9.15202 7.30134 8.80002 8.29867 8.80002H8.53334C8.71667 8.00069 9.12734 7.28202 9.77267 6.64403ZM8.57734 2.77202C8.57734 2.96269 8.51867 3.10936 8.40867 3.22669C8.29867 3.34402 8.152 3.39536 7.976 3.39536C7.78534 3.39536 7.63867 3.33669 7.52134 3.22669C7.404 3.10936 7.35267 2.96269 7.35267 2.77202V1.26869C7.35267 1.09269 7.41134 0.953358 7.52867 0.836025C7.646 0.718692 7.79267 0.667358 7.976 0.667358C8.152 0.667358 8.29134 0.726025 8.40867 0.836025C8.526 0.946025 8.57734 1.09269 8.57734 1.26869V2.77202ZM4.52934 4.45136C4.52934 4.64202 4.478 4.78869 4.368 4.90602C4.214 5.02336 4.06 5.08202 3.91334 5.08202C3.78134 5.08202 3.63467 5.02336 3.48067 4.90602L2.432 3.85736C2.31467 3.72536 2.256 3.57136 2.256 3.38802C2.256 3.21202 2.31467 3.06536 2.432 2.94802C2.48823 2.89062 2.55564 2.84538 2.63007 2.81511C2.70449 2.78483 2.78434 2.77017 2.86467 2.77202C3.04067 2.77202 3.18 2.83069 3.29 2.94802L4.368 3.99669C4.478 4.13602 4.52934 4.28269 4.52934 4.45136ZM3.95 13.134C3.95 13.31 3.89134 13.464 3.76667 13.596L3.29 14.058C3.18 14.1754 3.04067 14.234 2.86467 14.234C2.68867 14.234 2.542 14.1754 2.42467 14.0507C2.36663 13.9904 2.32117 13.9191 2.29096 13.8411C2.26074 13.763 2.24637 13.6797 2.24867 13.596C2.24867 13.4347 2.30734 13.288 2.42467 13.1707L2.90134 12.694C2.95533 12.6377 3.02026 12.5931 3.09215 12.5628C3.16403 12.5326 3.24134 12.5173 3.31934 12.518C3.49534 12.518 3.642 12.5767 3.75934 12.694C3.884 12.8114 3.95 12.958 3.95 13.134ZM2.872 8.50669C2.872 8.67536 2.806 8.81469 2.68134 8.93202C2.564 9.04936 2.41 9.10802 2.234 9.10802H0.738005C0.569338 9.10802 0.430004 9.04936 0.312672 8.93936C0.195337 8.82936 0.144003 8.68269 0.144003 8.50669C0.144003 8.33069 0.202671 8.18402 0.312672 8.06669C0.42267 7.94936 0.569338 7.88336 0.738005 7.88336H2.234C2.41 7.88336 2.55667 7.94202 2.68134 8.06669C2.74232 8.12247 2.79082 8.1905 2.82368 8.26632C2.85654 8.34215 2.873 8.42406 2.872 8.50669Z" fill="#14AE5C"/>
</svg>
