<svg width="15" height="15" viewBox="0 0 15 15" fill="none" xmlns="http://www.w3.org/2000/svg">
<path d="M5.9375 4.0625C6.245 3.74625 7.0625 2.5 7.5 2.5M7.5 2.5C7.9375 2.5 8.755 3.74625 9.0625 4.0625M7.5 2.5V6.25M11.4769 6.6475L10.5938 7.53125M1.875 10.625H3.125M3.52313 6.6475L4.40625 7.53125M13.125 10.625H11.875M13.125 12.5H1.875M10 10.625C10 9.96196 9.73661 9.32607 9.26777 8.85723C8.79893 8.38839 8.16304 8.125 7.5 8.125C6.83696 8.125 6.20107 8.38839 5.73223 8.85723C5.26339 9.32607 5 9.96196 5 10.625" stroke="red" stroke-width="0.9375" stroke-linecap="round" stroke-linejoin="round"/>
</svg>
