<svg width="14" height="14" viewBox="0 0 14 14" fill="none" xmlns="http://www.w3.org/2000/svg">
<path d="M7.25 5.9375L6.90937 6.26C6.95319 6.30634 7.00599 6.34325 7.06456 6.36848C7.12313 6.39371 7.18623 6.40672 7.25 6.40672C7.31377 6.40672 7.37687 6.39371 7.43544 6.36848C7.49401 6.34325 7.54681 6.30634 7.59063 6.26L7.25 5.9375ZM6.78375 8.98C6.38812 8.66312 6.005 8.38937 5.6975 8.0375C5.40625 7.70437 5.21875 7.33562 5.21875 6.86187H4.28125C4.28125 7.62312 4.59625 8.20187 4.99125 8.65437C5.37062 9.08812 5.85687 9.43875 6.1975 9.71125L6.78375 8.98ZM5.21875 6.86187C5.21875 6.41562 5.46687 6.05937 5.77562 5.91562C6.05312 5.78687 6.46625 5.79125 6.90937 6.25937L7.59063 5.61562C6.90875 4.895 6.07187 4.74437 5.38062 5.06562C4.72062 5.37187 4.28125 6.0725 4.28125 6.86187H5.21875ZM6.1975 9.71125C6.3225 9.81125 6.475 9.93375 6.635 10.0287C6.79312 10.1225 7.00375 10.2181 7.25 10.2181V9.28062C7.24562 9.28062 7.20688 9.27812 7.11313 9.2225C6.99816 9.14895 6.88813 9.06794 6.78375 8.98L6.1975 9.71125ZM8.3025 9.71125C8.64313 9.43875 9.12938 9.08812 9.50875 8.65437C9.90375 8.2025 10.2188 7.62312 10.2188 6.86187H9.28125C9.28125 7.33562 9.09375 7.70437 8.8025 8.0375C8.495 8.38937 8.11188 8.6625 7.71625 8.98L8.3025 9.71125ZM10.2188 6.86187C10.2188 6.07312 9.77938 5.37187 9.11938 5.06562C8.42813 4.74437 7.59125 4.895 6.90937 5.61562L7.59063 6.25937C8.03375 5.79125 8.44688 5.78687 8.72438 5.91562C9.03313 6.05937 9.28125 6.415 9.28125 6.86187H10.2188ZM7.71625 8.98C7.5825 9.0875 7.48 9.1675 7.38687 9.2225C7.29375 9.2775 7.25438 9.28062 7.25 9.28062V10.2181C7.49563 10.2181 7.70687 10.1225 7.86562 10.0287C8.025 9.93375 8.1775 9.81187 8.30313 9.71125L7.71625 8.98Z" fill="#14AE5C"/>
<path d="M7.25 1V2.25M7.25 12.25V13.5M1 7.25H2.25M12.25 7.25H13.5M3.5 11L3.71437 10.7856M10.7856 3.71437L11 3.5M11 11L10.7856 10.7856M3.71437 3.71437L3.5 3.5" stroke="#14AE5C" stroke-width="0.9375" stroke-linecap="round"/>
</svg>
