<svg width="20" height="20" viewBox="0 0 15 15" fill="none" xmlns="http://www.w3.org/2000/svg" transform="scale(-1, 1)">
<path d="M6.56463 6.5623C6.9999 6.56224 7.43083 6.64879 7.83233 6.81691C8.23383 6.98502 8.59787 7.23134 8.90324 7.54151C9.20862 7.85169 9.44923 8.21952 9.61106 8.62359C9.7729 9.02766 9.85272 9.45989 9.84588 9.89511C9.84474 9.96727 9.86027 10.0387 9.89128 10.1039C9.92228 10.1691 9.96792 10.2262 10.0246 10.2708C10.0813 10.3155 10.1476 10.3464 10.2182 10.3613C10.2888 10.3761 10.3619 10.3744 10.4318 10.3564C10.6396 10.3033 10.8568 10.2983 11.0668 10.3419C11.2768 10.3855 11.4741 10.4764 11.6437 10.6078C11.8132 10.7392 11.9505 10.9075 12.0451 11.1C12.1397 11.2925 12.1892 11.5041 12.1896 11.7185C12.1896 12.0915 12.0415 12.4492 11.7777 12.7129C11.514 12.9766 11.1563 13.1248 10.7834 13.1248H2.81463C2.56535 13.1234 2.31885 13.0723 2.08956 12.9745C1.86026 12.8767 1.65277 12.7341 1.47923 12.5552C1.30568 12.3762 1.16956 12.1645 1.07882 11.9323C0.988091 11.7001 0.944569 11.4521 0.950802 11.2029C0.957035 10.9537 1.0129 10.7083 1.11513 10.4809C1.21735 10.2536 1.36389 10.0489 1.54617 9.87882C1.72844 9.70877 1.9428 9.57677 2.1767 9.49055C2.4106 9.40433 2.65934 9.36562 2.90838 9.37667C3.01624 9.38201 3.12264 9.34994 3.20959 9.28588C3.29654 9.22183 3.3587 9.12971 3.38556 9.02511C3.56716 8.32009 3.97806 7.69548 4.55359 7.24962C5.12912 6.80376 5.83659 6.56196 6.56463 6.5623ZM10.7581 9.3748C10.6526 8.4243 10.2273 7.53785 9.55193 6.86076C8.87656 6.18368 7.99118 5.75615 7.04096 5.64827C6.09073 5.54039 5.13205 5.75856 4.32208 6.26701C3.51212 6.77546 2.89893 7.54401 2.58306 8.44667C1.85926 8.50592 1.18642 8.84284 0.705405 9.38693C0.224385 9.93101 -0.0275305 10.6401 0.00239033 11.3657C0.0323111 12.0913 0.341749 12.7772 0.86593 13.2798C1.39011 13.7825 2.0884 14.0628 2.81463 14.0623H10.7834C11.405 14.0623 12.0011 13.8154 12.4407 13.3758C12.8802 12.9363 13.1271 12.3401 13.1271 11.7185C13.1271 11.0969 12.8802 10.5008 12.4407 10.0613C12.0011 9.62173 11.405 9.3748 10.7834 9.3748H10.7581Z" fill="red"/>
<path d="M10.5827 0.729191C10.6366 0.648557 10.6642 0.553195 10.6616 0.456248C10.659 0.359302 10.6264 0.265544 10.5683 0.187898C10.5102 0.110251 10.4294 0.0525391 10.3372 0.0227153C10.2449 -0.00710857 10.1456 -0.00757555 10.0531 0.0213786C9.08236 0.32537 8.25056 0.963041 7.70491 1.82148C7.15927 2.67993 6.935 3.70376 7.0718 4.71169C7.4071 4.74454 7.73837 4.81016 8.06086 4.90763C7.91576 4.29067 7.94732 3.64532 8.15191 3.04546C8.35651 2.44559 8.72588 1.91546 9.21774 1.51575C9.05537 2.14184 9.03613 2.79645 9.16145 3.43099C9.28677 4.06553 9.55342 4.66368 9.94162 5.18103C10.3298 5.69838 10.8296 6.12163 11.4038 6.41935C11.978 6.71707 12.6119 6.88161 13.2584 6.90075C12.6439 7.3275 11.9044 7.5367 11.1574 7.49513C11.3099 7.79325 11.4331 8.10575 11.5268 8.43263C12.2037 8.40381 12.8642 8.21557 13.4546 7.88323C14.045 7.5509 14.5485 7.08386 14.9243 6.52013C14.9782 6.43949 15.0057 6.34413 15.0031 6.24719C15.0006 6.15024 14.968 6.05648 14.9099 5.97884C14.8518 5.90119 14.771 5.84348 14.6787 5.81365C14.5864 5.78383 14.4872 5.78336 14.3946 5.81232C13.7296 6.02104 13.0163 6.01836 12.3529 5.80464C11.6896 5.59093 11.1088 5.1767 10.6907 4.61906C10.2727 4.06143 10.0379 3.38784 10.0187 2.69115C9.99951 1.99446 10.196 1.30898 10.5827 0.729191Z" fill="red"/>
</svg>
