<svg width="24" height="24" viewBox="0 0 22 17" fill="none" xmlns="http://www.w3.org/2000/svg">
<path d="M0.369995 10.62C0.369995 10.38 0.449995 10.18 0.619995 10.01C0.799995 9.84 0.999995 9.76 1.22 9.76H3.26C3.49 9.76 3.68 9.84 3.84 10.01C3.99 10.18 4.06999 10.38 4.06999 10.62C4.06999 10.86 3.99 11.06 3.84 11.22C3.69 11.39 3.49 11.47 3.26 11.47H1.23C0.999995 11.47 0.799995 11.39 0.629995 11.22C0.548288 11.1428 0.483111 11.0498 0.438417 10.9467C0.393724 10.8435 0.370446 10.7324 0.369995 10.62ZM3.23 3.71C3.23 3.48 3.31 3.28 3.46 3.1C3.66 2.93 3.87 2.85 4.1 2.85C4.31 2.85 4.50999 2.93 4.68999 3.1L6.12 4.56C6.27999 4.71 6.35999 4.91 6.35999 5.15C6.35999 5.39 6.27999 5.59 6.12 5.75C5.96 5.91 5.76 5.99 5.52 5.99C5.28 5.99 5.08 5.91 4.93 5.75L3.47 4.32C3.39161 4.23927 3.33003 4.14378 3.28883 4.03907C3.24763 3.93435 3.22763 3.8225 3.23 3.71ZM3.39 13.02C3.39 12.8 3.47 12.61 3.62 12.47C3.78 12.33 3.99 12.25 4.26 12.25H9.97C10.24 12.25 10.45 12.32 10.61 12.47C10.77 12.61 10.85 12.8 10.85 13.02C10.85 13.29 10.77 13.5 10.62 13.66C10.46 13.82 10.25 13.9 9.97 13.9H4.26C3.99 13.9 3.78 13.82 3.62 13.67C3.46 13.52 3.39 13.29 3.39 13.02ZM4.38 15.97C4.38 15.75 4.47 15.55 4.66 15.37C4.73869 15.2862 4.83358 15.2191 4.93892 15.173C5.04426 15.1269 5.15787 15.1027 5.27285 15.1017C5.38784 15.1008 5.50182 15.1232 5.6079 15.1676C5.71398 15.212 5.80995 15.2774 5.89 15.36C6.05 15.54 6.13 15.74 6.13 15.97C6.13 16.25 6.04999 16.46 5.89999 16.62C5.74999 16.78 5.53 16.85 5.26 16.85C5.03315 16.8526 4.81426 16.7665 4.64999 16.61C4.56089 16.5296 4.49053 16.4306 4.44388 16.32C4.39723 16.2094 4.37542 16.0899 4.38 15.97ZM5.79 10.91V10.84C5.82 9.58 6.26 8.49 7.1 7.56C7.94 6.63 8.97 6.07 10.2 5.87H10.25C10.44 5.83 10.7 5.81 11.01 5.81C11.32 5.81 11.58 5.83 11.77 5.87H11.81C13.03 6.06 14.07 6.63 14.91 7.56C15.75 8.49 16.19 9.58 16.22 10.84V10.91C16.22 11.07 16.14 11.15 15.99 11.15H14.86C14.74 11.15 14.66 11.12 14.61 11.06C14.5653 11.0107 14.5403 10.9466 14.54 10.88C14.5 9.95 14.14 9.16 13.46 8.51C12.78 7.86 11.97 7.54 11.02 7.54C10.07 7.54 9.26 7.86 8.58 8.51C7.9 9.16 7.54 9.95 7.5 10.88C7.5 10.94 7.47 11 7.42 11.06C7.37 11.12 7.27999 11.15 7.16 11.15H6.02999C5.87 11.15 5.79 11.07 5.79 10.91ZM6.8 15.97C6.8 15.74 6.88 15.54 7.04 15.36C7.2 15.19 7.41 15.1 7.67 15.1H11.5C11.72 15.1 11.92 15.19 12.1 15.37C12.28 15.55 12.38 15.75 12.38 15.97C12.38 16.23 12.29 16.45 12.11 16.61C11.93 16.77 11.73 16.85 11.5 16.85H7.67C7.4 16.85 7.18999 16.77 7.02999 16.62C6.87 16.46 6.8 16.25 6.8 15.97ZM10.14 2.89V0.86C10.14 0.62 10.22 0.42 10.39 0.25C10.56 0.08 10.76 0 11 0C11.24 0 11.43 0.08 11.6 0.25C11.77 0.42 11.85 0.62 11.85 0.86V2.89C11.85 3.12 11.77 3.32 11.6 3.47C11.43 3.62 11.23 3.71 11 3.71C10.77 3.71 10.56 3.63 10.4 3.48C10.24 3.33 10.14 3.12 10.14 2.89ZM11.5 13.02C11.5 12.81 11.59 12.63 11.77 12.48C12.04 12.255 12.15 12.25 12.38 12.25C12.61 12.25 12.81 12.33 12.99 12.48C13.17 12.63 13.26 12.81 13.26 13.02C13.26 13.28 13.17 13.5 12.99 13.66C12.81 13.82 12.61 13.9 12.38 13.9C12.15 13.9 11.94 13.82 11.77 13.66C11.682 13.5787 11.6123 13.4796 11.5657 13.3692C11.5192 13.2588 11.4968 13.1398 11.5 13.02ZM13.04 15.97C13.04 15.74 13.12 15.54 13.28 15.36C13.44 15.19 13.66 15.1 13.92 15.1H15.78C16.04 15.1 16.25 15.19 16.41 15.36C16.57 15.54 16.65 15.74 16.65 15.97C16.65 16.25 16.57 16.46 16.42 16.62C16.27 16.78 16.05 16.85 15.78 16.85H13.92C13.65 16.85 13.44 16.77 13.28 16.62C13.12 16.46 13.04 16.25 13.04 15.97ZM13.92 13.02C13.92 12.81 14.01 12.63 14.19 12.48C14.46 12.255 14.57 12.25 14.79 12.25H17.86C18.08 12.25 18.26 12.32 18.4 12.47C18.54 12.62 18.62 12.8 18.62 13.02C18.62 13.29 18.55 13.5 18.41 13.66C18.27 13.82 18.09 13.9 17.86 13.9H14.79C14.56 13.9 14.36 13.82 14.18 13.66C14.0953 13.5767 14.0285 13.477 13.9838 13.3669C13.939 13.2568 13.9173 13.1388 13.92 13.02ZM15.66 5.15C15.66 4.9 15.74 4.7 15.89 4.56L17.31 3.1C17.49 2.93 17.69 2.85 17.9 2.85C18.13 2.85 18.33 2.93 18.5 3.1C18.67 3.27 18.75 3.47 18.75 3.71C18.75 3.95 18.67 4.16 18.51 4.32L17.05 5.74C16.87 5.9 16.67 5.98 16.45 5.98C16.22 5.98 16.04 5.9 15.89 5.74C15.8135 5.66249 15.7537 5.57018 15.7141 5.46873C15.6746 5.36728 15.6562 5.25882 15.66 5.15ZM17.92 10.62C17.92 10.39 18 10.19 18.16 10.01C18.33 9.84 18.52 9.76 18.73 9.76H20.75C20.98 9.76 21.18 9.85 21.35 10.02C21.52 10.19 21.61 10.39 21.61 10.62C21.61 10.85 21.52 11.05 21.35 11.22C21.18 11.39 20.98 11.47 20.75 11.47H18.73C18.5 11.47 18.3 11.39 18.15 11.22C18 11.05 17.92 10.86 17.92 10.62Z" fill="#14AE5C"/>
</svg>
