<svg width="15" height="15" viewBox="0 0 15 15" fill="none" xmlns="http://www.w3.org/2000/svg">
<path d="M12.85 8.44499C12.85 8.88999 12.74 9.30499 12.52 9.68499C12.3 10.065 12.005 10.365 11.625 10.585C11.245 10.805 10.835 10.92 10.385 10.92H4.98001C4.53501 10.92 4.12001 10.81 3.74001 10.585C3.36001 10.36 3.06001 10.06 2.84001 9.68499C2.62001 9.30499 2.50501 8.88999 2.50501 8.44499C2.50501 8.12499 2.57501 7.79499 2.71501 7.44499C2.33501 6.97999 2.15001 6.42999 2.15001 5.79499C2.14627 5.33598 2.26412 4.88416 2.49157 4.48546C2.71903 4.08675 3.04799 3.75537 3.44501 3.52499C3.84501 3.28999 4.28501 3.17499 4.76001 3.17499C5.50501 3.17499 6.15001 3.46499 6.69501 4.04499C7.07501 3.82999 7.52501 3.71999 8.04001 3.71999C8.74501 3.71999 9.36501 3.93499 9.90501 4.36999C10.445 4.80499 10.79 5.35999 10.945 6.04499C11.505 6.16999 11.96 6.45499 12.315 6.90499C12.6657 7.3412 12.8547 7.8853 12.85 8.44499ZM11.995 8.44499C11.995 8.02999 11.855 7.66999 11.58 7.36499C11.3 7.05999 10.95 6.88499 10.53 6.83499L10.19 6.81999L10.155 6.45999C10.085 5.91999 9.85001 5.46499 9.45001 5.10499C9.05001 4.73999 8.58001 4.55999 8.04501 4.55999C7.50001 4.55999 7.02001 4.74499 6.61501 5.10999C6.21001 5.47499 5.98001 5.92499 5.92501 6.46499L5.87501 6.83999H4.98501C4.54501 6.83999 4.16501 6.99999 3.84501 7.31499C3.52501 7.62999 3.36501 8.00999 3.36501 8.44499C3.36501 8.89499 3.52501 9.27999 3.84001 9.60499C4.15501 9.92999 4.54001 10.09 4.98001 10.09H10.385C10.82 10.09 11.195 9.92999 11.515 9.60499C11.835 9.27499 11.995 8.88999 11.995 8.44499ZM5.98001 4.52999C5.63501 4.19999 5.23001 4.03499 4.76001 4.03499C4.26501 4.03499 3.84501 4.20499 3.50001 4.54999C3.15501 4.88999 2.98001 5.30999 2.98001 5.80499C2.98001 6.11499 3.06501 6.41999 3.24001 6.72499C3.72001 6.23999 4.30001 5.99999 4.98501 5.99999H5.14001C5.27501 5.44499 5.55501 4.95499 5.98001 4.52999Z" fill="black"/>
</svg>
