<svg width="11" height="8" viewBox="0 0 11 8" fill="none" xmlns="http://www.w3.org/2000/svg">
<path d="M10.9999 5.27C10.9999 5.715 10.8899 6.13 10.6699 6.51C10.4499 6.89 10.1549 7.19 9.77491 7.41C9.39491 7.63 8.98491 7.745 8.53491 7.745H3.12991C2.68491 7.745 2.26991 7.635 1.88991 7.41C1.50991 7.185 1.20991 6.885 0.989913 6.51C0.769913 6.13 0.654913 5.715 0.654913 5.27C0.654913 4.95 0.724913 4.62 0.864913 4.27C0.484913 3.805 0.299912 3.255 0.299912 2.62C0.296174 2.16099 0.414021 1.70917 0.641477 1.31047C0.868932 0.911762 1.19789 0.58038 1.59491 0.35C1.99491 0.115 2.43491 0 2.90991 0C3.65491 0 4.29991 0.29 4.84491 0.87C5.22491 0.655 5.67491 0.545 6.18991 0.545C6.89491 0.545 7.51491 0.76 8.05491 1.195C8.59491 1.63 8.93991 2.185 9.09491 2.87C9.65491 2.995 10.1099 3.28 10.4649 3.73C10.8156 4.16621 11.0046 4.71031 10.9999 5.27ZM10.1449 5.27C10.1449 4.855 10.0049 4.495 9.72991 4.19C9.44991 3.885 9.09991 3.71 8.67991 3.66L8.33991 3.645L8.30491 3.285C8.23491 2.745 7.99991 2.29 7.59991 1.93C7.19991 1.565 6.72991 1.385 6.19491 1.385C5.64991 1.385 5.16991 1.57 4.76491 1.935C4.35991 2.3 4.12991 2.75 4.07491 3.29L4.02491 3.665H3.13491C2.69491 3.665 2.31491 3.825 1.99491 4.14C1.67491 4.455 1.51491 4.835 1.51491 5.27C1.51491 5.72 1.67491 6.105 1.98991 6.43C2.30491 6.755 2.68991 6.915 3.12991 6.915H8.53491C8.96991 6.915 9.34491 6.755 9.66491 6.43C9.98491 6.1 10.1449 5.715 10.1449 5.27ZM4.12991 1.355C3.78491 1.025 3.37991 0.86 2.90991 0.86C2.41491 0.86 1.99491 1.03 1.64991 1.375C1.30491 1.715 1.12991 2.135 1.12991 2.63C1.12991 2.94 1.21491 3.245 1.38991 3.55C1.86991 3.065 2.44991 2.825 3.13491 2.825H3.28991C3.42491 2.27 3.70491 1.78 4.12991 1.355Z" fill="black"/>
</svg>
