<?xml version="1.0" encoding="UTF-8"?>
<!DOCTYPE svg PUBLIC "-//W3C//DTD SVG 1.1//EN" "http://www.w3.org/Graphics/SVG/1.1/DTD/svg11.dtd">
<svg xmlns="http://www.w3.org/2000/svg" version="1.1" width="500px" height="500px" style="shape-rendering:geometricPrecision; text-rendering:geometricPrecision; image-rendering:optimizeQuality; fill-rule:evenodd; clip-rule:evenodd" xmlns:xlink="http://www.w3.org/1999/xlink">
<g><path style="opacity:0.865" fill="white" d="M 249.5,53.5 C 257.331,53.9983 263.164,57.6649 267,64.5C 268.099,76.2934 268.599,88.1267 268.5,100C 268.61,111.546 268.11,123.046 267,134.5C 261.999,143.243 254.499,146.41 244.5,144C 239,142.5 235.5,139 234,133.5C 233.333,110.833 233.333,88.1667 234,65.5C 237.06,58.5888 242.226,54.5888 249.5,53.5 Z"/></g>
<g><path style="opacity:0.863" fill="white" d="M 88.5,110.5 C 93.5483,110.127 98.215,111.294 102.5,114C 117.667,128.5 132.833,143 148,157.5C 155.002,172.831 150.335,182.164 134,185.5C 130.284,184.958 126.784,183.791 123.5,182C 108.333,167.5 93.1667,153 78,138.5C 71.4043,125.099 74.9043,115.765 88.5,110.5 Z"/></g>
<g><path style="opacity:0.884" fill="white" d="M 408.5,112.5 C 421.448,110.624 428.782,116.124 430.5,129C 430.204,132.842 429.038,136.342 427,139.5C 411.862,153.637 397.029,168.137 382.5,183C 371.53,188.882 362.696,186.716 356,176.5C 354.669,169.715 355.669,163.382 359,157.5C 373.167,144 387.333,130.5 401.5,117C 403.898,115.476 406.231,113.976 408.5,112.5 Z"/></g>
<g><path style="opacity:0.89" fill="white" d="M 235.5,166.5 C 294.281,162.624 336.447,186.958 362,239.5C 367.476,254.024 369.81,269.024 369,284.5C 363.971,296.091 355.471,299.591 343.5,295C 339.126,292.295 336.293,288.461 335,283.5C 332.838,240.342 311.004,212.842 269.5,201C 224.556,194.22 192.056,211.053 172,251.5C 168.237,262.172 166.237,273.172 166,284.5C 160.192,296.776 151.026,299.943 138.5,294C 134.164,290.16 131.83,285.327 131.5,279.5C 135.043,227.469 161.043,191.969 209.5,173C 218.14,170.173 226.807,168.007 235.5,166.5 Z"/></g>
<g><path style="opacity:0.875" fill="white" d="M 27.5,263.5 C 50.5024,263.333 73.5024,263.5 96.5,264C 106.461,267.75 110.294,274.916 108,285.5C 106.594,290.573 103.428,294.073 98.5,296C 74.5,296.667 50.5,296.667 26.5,296C 14.2569,290.269 11.4235,281.436 18,269.5C 20.8426,266.837 24.0093,264.837 27.5,263.5 Z"/></g>
<g><path style="opacity:0.883" fill="white" d="M 404.5,263.5 C 427.836,263.333 451.169,263.5 474.5,264C 486.148,269.271 489.314,277.771 484,289.5C 481.736,292.433 478.902,294.6 475.5,296C 451.5,296.667 427.5,296.667 403.5,296C 393.261,289.935 390.761,281.435 396,270.5C 398.416,267.577 401.25,265.243 404.5,263.5 Z"/></g>
<g><path style="opacity:0.892" fill="white" d="M 248.5,296.5 C 255.757,296.062 262.091,298.228 267.5,303C 281.366,316.534 295.532,329.701 310,342.5C 314.805,351.157 313.638,358.99 306.5,366C 299.151,370.539 291.818,370.539 284.5,366C 279.635,360.8 274.468,355.967 269,351.5C 268.667,378.5 268.333,405.5 268,432.5C 265.498,440.928 259.831,445.595 251,446.5C 241.972,445.797 236.305,441.131 234,432.5C 233.667,405.5 233.333,378.5 233,351.5C 228.135,356.7 222.968,361.533 217.5,366C 209.783,370.656 202.117,370.656 194.5,366C 186.289,356.767 186.622,347.767 195.5,339C 209.129,327.706 222.463,316.039 235.5,304C 239.532,300.762 243.866,298.262 248.5,296.5 Z"/></g>
</svg>
