<svg width="22" height="22" viewBox="0 0 22 22" fill="none" xmlns="http://www.w3.org/2000/svg">
<path d="M0.369991 10.62C0.369991 10.38 0.449991 10.17 0.619991 10C0.789991 9.84 0.999991 9.76 1.21999 9.76H3.25999C3.48999 9.76 3.67999 9.84 3.83999 10.01C3.98999 10.18 4.06999 10.38 4.06999 10.62C4.06999 10.86 3.99999 11.06 3.84999 11.23C3.69999 11.4 3.49999 11.48 3.26999 11.48H1.22999C0.999991 11.48 0.799991 11.4 0.629991 11.23C0.547056 11.1517 0.481163 11.057 0.436428 10.9521C0.391694 10.8471 0.369077 10.7341 0.369991 10.62ZM3.22999 17.55C3.22999 17.32 3.30999 17.12 3.45999 16.94L4.92999 15.51C5.07999 15.35 5.27999 15.28 5.51999 15.28C5.75999 15.28 5.95999 15.36 6.11999 15.51C6.27999 15.66 6.35999 15.85 6.35999 16.08C6.35999 16.32 6.27999 16.54 6.11999 16.72L4.69999 18.14C4.28999 18.46 3.87999 18.46 3.46999 18.14C3.39172 18.0633 3.33003 17.9714 3.28874 17.8699C3.24746 17.7684 3.22746 17.6595 3.22999 17.55ZM3.22999 3.71C3.22999 3.48 3.30999 3.28 3.45999 3.1C3.65999 2.93 3.86999 2.85 4.09999 2.85C4.31999 2.85 4.51999 2.93 4.68999 3.09L6.11999 4.56C6.27999 4.71 6.35999 4.91 6.35999 5.15C6.35999 5.39 6.27999 5.59 6.11999 5.75C5.87999 5.99 5.75999 5.99 5.51999 5.99C5.27999 5.99 5.07999 5.91 4.92999 5.75L3.46999 4.32C3.39114 4.2396 3.32926 4.14417 3.28803 4.03938C3.2468 3.93459 3.22706 3.82257 3.22999 3.71ZM5.77999 10.62C5.77999 9.69 6.00999 8.82 6.47999 8.02C6.94999 7.22 7.57999 6.58 8.38999 6.11C9.19999 5.64 10.06 5.41 10.99 5.41C11.69 5.41 12.36 5.55 13.01 5.83C13.65 6.11 14.21 6.48 14.67 6.95C15.14 7.42 15.51 7.97 15.78 8.61C16.05 9.25 16.19 9.93 16.19 10.63C16.19 11.57 15.96 12.44 15.49 13.24C15.02 14.04 14.39 14.67 13.59 15.14C12.79 15.61 11.92 15.84 10.98 15.84C10.04 15.84 9.16999 15.61 8.36999 15.14C7.56999 14.67 6.93999 14.04 6.46999 13.24C6.01999 12.43 5.77999 11.56 5.77999 10.62ZM7.47999 10.62C7.47999 11.6 7.81999 12.43 8.50999 13.12C9.18999 13.81 10.02 14.16 11 14.16C11.98 14.16 12.81 13.81 13.5 13.12C14.19 12.43 14.54 11.6 14.54 10.62C14.54 9.66 14.19 8.84 13.5 8.15C12.81 7.47 11.98 7.13 11 7.13C10.03 7.13 9.19999 7.47 8.51999 8.15C7.81999 8.84 7.47999 9.66 7.47999 10.62ZM10.14 18.4C10.14 18.16 10.22 17.96 10.39 17.8C10.56 17.64 10.76 17.56 10.99 17.56C11.23 17.56 11.44 17.64 11.6 17.8C11.76 17.96 11.84 18.16 11.84 18.4V20.39C11.84 20.63 11.76 20.84 11.59 21.01C11.42 21.18 11.22 21.26 10.99 21.26C10.76 21.26 10.55 21.18 10.39 21.01C10.3086 20.9289 10.2445 20.8322 10.2015 20.7256C10.1585 20.619 10.1376 20.5049 10.14 20.39V18.4ZM10.14 2.9V0.86C10.14 0.63 10.22 0.43 10.39 0.26C10.56 0.0900002 10.76 0 11 0C11.24 0 11.43 0.08 11.6 0.25C11.77 0.42 11.85 0.62 11.85 0.85V2.9C11.85 3.13 11.77 3.32 11.6 3.48C11.43 3.64 11.23 3.71 11 3.71C10.77 3.71 10.56 3.63 10.4 3.48C10.24 3.33 10.14 3.13 10.14 2.9ZM15.66 16.08C15.66 15.85 15.74 15.66 15.89 15.52C16.04 15.36 16.23 15.29 16.45 15.29C16.69 15.29 16.89 15.37 17.05 15.52L18.51 16.95C18.67 17.12 18.75 17.33 18.75 17.56C18.75 17.79 18.67 17.99 18.51 18.15C18.11 18.46 17.71 18.46 17.31 18.15L15.89 16.73C15.7363 16.5488 15.6545 16.3175 15.66 16.08ZM15.66 5.16C15.66 4.91 15.74 4.71 15.89 4.57L17.31 3.1C17.4675 2.94565 17.6794 2.85944 17.9 2.86C18.14 2.86 18.34 2.94 18.5 3.11C18.67 3.28 18.75 3.48 18.75 3.71C18.75 3.96 18.67 4.17 18.51 4.33L17.05 5.76C16.87 5.92 16.67 6 16.45 6C16.22 6 16.04 5.92 15.89 5.76C15.74 5.6 15.66 5.4 15.66 5.16ZM17.92 10.62C17.92 10.38 18 10.18 18.16 10C18.32 9.84 18.51 9.76 18.73 9.76H20.75C20.98 9.76 21.18 9.85 21.35 10.02C21.52 10.19 21.61 10.39 21.61 10.62C21.61 10.85 21.52 11.05 21.35 11.22C21.18 11.39 20.98 11.47 20.75 11.47H18.73C18.5 11.47 18.3 11.39 18.15 11.22C18 11.05 17.92 10.86 17.92 10.62Z" fill="yellow"/>
</svg>
